<?xml version="1.0" encoding="UTF-8"?>
<svg xmlns="http://www.w3.org/2000/svg" xmlns:xlink="http://www.w3.org/1999/xlink" version="1.1" viewBox="0 0 191.7 61.8">
  <defs>
    <style>
      .cls-1 {
        fill: url(#linear-gradient-5);
      }

      .cls-2 {
        fill: url(#linear-gradient-6);
      }

      .cls-3 {
        fill: url(#linear-gradient-4);
      }

      .cls-4 {
        fill: url(#linear-gradient-3);
      }

      .cls-5 {
        fill: url(#linear-gradient-2);
      }

      .cls-6 {
        fill: url(#linear-gradient);
      }

      .cls-7 {
        fill: #fff;
      }
    </style>
    <linearGradient id="linear-gradient" x1="20.4" y1="1015.1" x2="20.4" y2="1022.8" gradientTransform="translate(0 -972)" gradientUnits="userSpaceOnUse">
      <stop offset="0" stop-color="#00c950"/>
      <stop offset="1" stop-color="#096"/>
    </linearGradient>
    <linearGradient id="linear-gradient-2" x1="35.8" y1="1020.6" x2="35.8" y2="1028.3" gradientTransform="translate(0 -972)" gradientUnits="userSpaceOnUse">
      <stop offset="0" stop-color="#00c950"/>
      <stop offset="1" stop-color="#096"/>
    </linearGradient>
    <linearGradient id="linear-gradient-3" x1="7.1" y1="979.7" x2="7.1" y2="989" gradientTransform="translate(0 -972)" gradientUnits="userSpaceOnUse">
      <stop offset="0" stop-color="#00c950"/>
      <stop offset="1" stop-color="#096"/>
    </linearGradient>
    <linearGradient id="linear-gradient-4" x1="8" y1="986.7" x2="8" y2="990.5" gradientTransform="translate(0 -972)" gradientUnits="userSpaceOnUse">
      <stop offset="0" stop-color="#00c950"/>
      <stop offset="1" stop-color="#096"/>
    </linearGradient>
    <linearGradient id="linear-gradient-5" x1="8.4" y1="988.2" x2="8.4" y2="991.8" gradientTransform="translate(0 -972)" gradientUnits="userSpaceOnUse">
      <stop offset="0" stop-color="#00c950"/>
      <stop offset="1" stop-color="#096"/>
    </linearGradient>
    <linearGradient id="linear-gradient-6" x1="28.3" y1="989.5" x2="28.3" y2="1025.2" gradientTransform="translate(0 -972)" gradientUnits="userSpaceOnUse">
      <stop offset="0" stop-color="#00c950"/>
      <stop offset="1" stop-color="#096"/>
    </linearGradient>
  </defs>
  <!-- Generator: Adobe Illustrator 28.6.0, SVG Export Plug-In . SVG Version: 1.2.0 Build 709)  -->
  <g>
    <g id="Layer_1">
      <g id="Layer_1-2" data-name="Layer_1">
        <path class="cls-7" d="M34.7,35.7h-1.9l-10.2-9.1v9h-1.4v-18.4h1.4v8.4l9.4-8.4h1.8l-9.7,8.7,10.6,9.5s0,.3,0,.3Z"/>
        <path class="cls-7" d="M37.1,35.7v-18.5h1.4v18.4h-1.4Z"/>
        <path class="cls-7" d="M55.5,18.5h-7.4v-1.3h8.8v11.5c0,2.2-.7,4-2.2,5.3-1.4,1.3-3.2,1.9-5.5,1.9s-4.1-.6-5.4-2c-1.4-1.4-2.2-3.1-2.2-5.2h1.4c0,1.7.6,3.2,1.8,4.3s2.7,1.6,4.4,1.6,3.3-.5,4.4-1.5c1.2-1,1.7-2.5,1.7-4.4v-10.2h.2Z"/>
        <path class="cls-7" d="M76.4,35.7l-2.1-4.5h-11.6l-2.1,4.5h-1.6l8.7-18.4h1.6l8.7,18.4h-1.6ZM73.7,29.8l-5.1-11.2-5.2,11.2h10.4,0Z"/>
        <path class="cls-7" d="M81.8,17.3l13,15.2v-15.2h1.4v18.4h-.5l-13.1-15.1v15.2h-1.4v-18.5s.6,0,.6,0Z"/>
        <path class="cls-7" d="M101.2,35.7v-18.5h1.4v18.4h-1.4Z"/>
        <path class="cls-7" d="M130.7,33.4c-1.9,1.8-4.3,2.7-7.2,2.7s-3.2-.3-4.5-.8c-1.4-.5-2.3-1.3-3.2-2.1-.8-.8-1.4-1.9-1.8-3-.5-1.1-.6-2.3-.6-3.5s.2-2.5.6-3.5,1-2.2,1.8-3.1c.8-.9,1.9-1.6,3.2-2.2,1.4-.5,2.8-.8,4.5-.8,2.8,0,5.1.9,7,2.8l-2.1,1.9c-1.4-1.3-3-1.9-5-1.9s-4.1.6-5.3,2c-1.3,1.4-1.8,2.9-1.8,4.8s.6,3.5,1.8,4.7c1.2,1.3,3,2,5.3,2s1.8-.2,2.8-.5c.9-.4,1.7-.8,2.3-1.5l2,2h.2Z"/>
        <path class="cls-7" d="M146.8,31.8h-10.5l-1.8,3.8h-3.2l8.7-18.4h3.3l8.7,18.4h-3.2l-1.9-3.8h-.1ZM141.6,20.4l-4.1,8.7h8.1l-4.1-8.7h.1Z"/>
        <path class="cls-7" d="M170.8,35.7h-3.6l-5.9-6.4h-4.1v6.4h-3.1v-18.5h9c2.2,0,3.8.5,5,1.7s1.8,2.6,1.8,4.3-.5,2.7-1.3,3.7c-.8,1.1-2.2,1.7-4,2l5.8,6.1.3.6h.1ZM157.3,20v6.6h5.9c1.2,0,2.2-.3,2.8-.9.6-.6.9-1.5.9-2.4s-.3-1.7-.9-2.4c-.6-.6-1.5-1-2.7-1h-6Z"/>
        <path class="cls-7" d="M177.8,20h-6.3v-2.6h15.8v2.6h-6.3v15.7h-3.1v-15.7h0Z"/>
        <path class="cls-7" d="M72.7,42.9s0,0,.2,0h0v.2c-1.4.7-2.4,1.4-3.3,2.1-.5,2.1-1,3.8-1.4,5.2-.6,1.5-1.3,2.4-1.9,2.5h-.2c-.2,0-.4,0-.5-.2-.2-.2-.4-.5-.4-1.1s0-1.1.3-1.7c.2-.6.5-1.4,1-2,.7-1.1,1.6-2.1,2.7-2.9,0-.5.3-1.2.4-1.8-.3.3-.5.5-.6.7-.4.4-.6.5-1,.3-.3,0-.4-.4-.4-.7s0-.8.4-1.3h.2c.2,0,0,0,0,0h0c-.2.5-.3.9-.3,1.2s0,.5.2.5.2,0,.4-.2c.4-.4.8-.8,1.2-1.4h.3c.1,0,.2,0,.2.2,0,.7-.3,1.5-.4,2.1.8-.5,1.8-1.2,3-1.8v.2h0ZM67.6,50.4c.5-1.2,1-2.7,1.4-4.6-.8.7-1.5,1.5-2.2,2.5-.4.5-.6,1-.8,1.5-.2.5-.4,1-.4,1.4v1c0,.3,0,.5.2.5h.2l.3-.2.4-.4c0-.2.3-.4.4-.6.2-.5.4-.8.5-1.2h0Z"/>
        <path class="cls-7" d="M75.5,42.9h.2c-.2.4-.5.6-.8.9-.3.3-.6.5-1,.7-.4.3-.7.4-1,.4h-.3c-.5-.2-.5-.9-.2-2.1h.2c0,.4-.2.6-.2.8v.8h0c.2,0,.5,0,1.1-.5.5-.4,1-.8,1.4-1.3h.2l.4.3ZM73,42.2c-.2,0-.3,0-.2-.2,0,0,.2-.2.3-.2h.4s0,.2-.2.3h-.3Z"/>
        <path class="cls-7" d="M79,42.9h.2c-.9,1-1.6,1.7-2.3,2.1-.3.2-.5.3-.8.3h-.5s-.2,0-.3-.2c-.2,0-.2-.2-.3-.4v-.6c0-.3,0-.5.3-.9.2-.5.5-1,.8-1.3.4-.3.5-.5.8-.5s.3,0,.4.2c0,.2,0,.5-.3.7-.3.3-.7.6-1.3,1,0,.3-.2.5-.2.6v1h0c.3.2.5.2.9,0,.6-.4,1.4-1,2.3-1.9h.3ZM76.7,41.7c-.3,0-.5.5-.8.8.5-.3.8-.5.8-.8Z"/>
        <path class="cls-7" d="M82,36.5c.2.2,0,.6-.3,1.3-.4.7-.8,1.5-1.5,2.4-.5,1.5-.9,3.1-1.4,4.7s-.7,2.8-.8,3.5h0v.6h-.2s-.2,0-.2-.3,0-.5.2-1c.2-.6.4-1.5.6-2.5.6-2.4,1.3-4.5,1.9-6.4,0-.2,0-.4.2-.5,0-.2.2-.4.3-.6,0-.3.3-.5.4-.6,0-.2.3-.4.4-.5.2-.2.3-.3.4-.3h.3l-.3.2ZM80.6,39c.6-.9,1-1.6,1-2.1-.3.4-.6,1.1-1,2.1Z"/>
        <path class="cls-7" d="M85.3,37.5c.2.2,0,.7-.3,1.6v.3c-.2.4-.3.7-.5,1s-.3.5-.5,1c-.3.5-.5.8-.7,1.3-.2.8-.5,1.7-.6,2.6-.4,1.6-.5,2.7-.5,3.3h.2c-.2.3-.3.5-.5.5h-.2v-1.3c0-.6.3-1.5.5-2.5,0-.5.3-1.1.4-1.6-.3.3-.5.6-.7.9-.5.5-1,.8-1.4.6-.3-.2-.4-.4-.4-.7s0-.7.4-1.1c.3-.5.5-.7.9-.9s.6-.3.9-.2c.3,0,.5.2.5.5v-.2c.5-1.5.8-2.7,1.3-3.6.5-.9.7-1.4,1-1.5h.4-.2ZM81.4,44.3c.4-.4.7-.8,1-1.2,0,0-.2,0-.2-.2s0-.4-.2-.4h0c-.2,0-.4,0-.6.3-.3.2-.5.4-.6.7,0,.2-.2.4-.3.6v.8h0l.3-.2c.3-.3.4-.4.5-.5h0ZM84.6,39c.2-.4.3-.6.4-.9-.4.6-.8,1.5-1.2,2.9.2-.4.5-1,.7-1.6v-.4h0Z"/>
        <path class="cls-7" d="M88.9,42.9h.2s0,0,0,0c-1.5,1.4-2.3,2.2-2.5,2.4,0,0-.3.3-.4.4v1c0,.4-.2.5-.4.8-.2.2-.4.5-.6.5-.2.2-.5.2-.6.2h-.3c-.5-.3,0-1.2,1.4-2.5,0-.3-.2-.5-.4-.6-.4-.5-.6-.8-.8-1.1-.2-.3-.3-.5-.3-.8s0-.5.3-.6c.2-.2.4-.4.6-.5.2,0,.5-.2.7-.2h.6v.2h-1.1c-.4.2-.6.5-.6.8s0,.5.3.7c.2.3.5.6.8,1,.2.2.3.4.4.5,0,0,0,0,.2-.2.2-.2,1.1-1,2.5-2.4v.4ZM85.4,47.6c.4-.4.5-.8.5-1.4-.4.4-.5.6-.8,1-.2.3-.3.5-.4.6v.3s.2,0,.3-.2c.2,0,.3-.2.5-.4h0Z"/>
        <path class="cls-7" d="M96.2,43h.2c-.3.3-.7.5-1.2.7s-.8.3-1.3.2c0,.2-.3.4-.5.5-.2,0-.4.2-.6.2s-.4,0-.5-.2c-.2,0-.3-.3-.4-.5v-.8c.2-.3.4-.5.5-.5h.2s.2-.3.3-.3h.6l.2.2s0,.2.2.4v.8c.3,0,.6,0,1-.2s.6-.4.9-.6h.4ZM92.9,44.5h.4s.2-.2.3-.3c-.5-.2-.7-.5-.8-.9-.2,0-.3.3-.4.5v.5c.2.2.4.3.5.3h0ZM93.7,43.6v-.6s0,0,0-.2c0-.2,0,0,0,0h0v.6s.2.2.4.3h-.4Z"/>
        <path class="cls-7" d="M98.2,42.5h.2-.2c-.5,0-1.1,0-1.5.2-.5,1.5-.9,2.9-1.3,4.4s-.6,2.5-.7,3.1h0v.6c0,.2,0,0-.2,0h0s-.2,0-.2-.3,0-.5.2-1c.2-.6.4-1.5.6-2.5.4-1.5.8-2.9,1.3-4.3h-.9v-.2h1.3c.2-.6.4-1.2.5-1.7,0-.2.2-.5.3-.6,0-.2.2-.5.4-.8.2-.3.3-.5.5-.8.2-.2.4-.4.5-.4h.3c.2.2,0,.7-.3,1.5-.4.7-.9,1.5-1.5,2.3,0,0,0,.3-.2.5h1.4-.5ZM98.4,38.9c-.4.4-.7,1.1-1.1,2.1.6-.8,1-1.5,1.1-2.1Z"/>
        <path class="cls-7" d="M107.3,42.9h.2c-.3.4-.5.7-.7.9-.3.3-.5.5-.6.6-.2.2-.4.3-.5.4-.2,0-.3.2-.4.2h-.6c-.4,0-.5-.4-.6-1v-.6h-.3c-.1,0-.3.2-.4.4-.2.2-.3.4-.5.6-.2.3-.4.5-.5.9-.2.4-.4.7-.6,1.2h-.4c0-.4.2-1.1.6-2.5.5-1.4.7-2.4,1-3.2s.5-1.5.5-1.9c.3-.8.5-1.5.9-2.1.4-.5.6-.9.9-.9h.3c.2.2,0,.6-.3,1.4-.4.7-.9,1.6-1.7,2.7-.6,1.9-1.1,3.5-1.4,4.5.4-.5.6-1,1-1.4s.6-.5.9-.5.5.3.5.8,0,.6.3.6h.3s.3-.2.5-.3c.2,0,.4-.4.6-.6.3-.3.5-.6.9-1v.8ZM105,36.9c-.5.5-.8,1.3-1.2,2.4.7-1.1,1.1-1.8,1.2-2.4Z"/>
        <path class="cls-7" d="M111.6,43h.2c-.8,1.5-1.5,2.1-2.2,2.1h0c-.5,0-.8-.6-1-1.6-.4.4-.7.7-1,1-.3.2-.5.3-.6.2-.2,0-.3-.2-.3-.5s0-.5.2-.8c0-.3.3-.6.5-.9.3-.3.5-.5.8-.5.5,0,.8,0,1.2.3h0v.2h-.4c-.3-.3-.5-.3-.8-.2-.3.2-.5.5-.8.9-.2.5-.3.8-.3,1h.2c.3-.3.7-.6,1.2-1.1l.2-.2h.3c.1,0,.2,0,.2.2v.8c0,.3,0,.4.2.5,0,0,0,.2.2.3,0,0,0,0,.2.2h.5c.2,0,.4-.3.6-.5.3-.3.5-.6.8-1.1-.2,0-.3,0-.2,0v-.3Z"/>
        <path class="cls-7" d="M116.1,42.9h.2c-.2.5-.5.8-.7,1.2-.3.4-.5.7-.9,1.1-.3.4-.6.7-.9.9-.3.3-.5.4-.8.4h-.2c-.3,0-.5-.5-.3-1.1,0-.6.4-1.5.8-2.5-.2,0-.3.2-.5.2,0,0-.3,0-.5.2h-1c-.3-.2-.5-.4-.5-.6s0-.6.5-.9c.2-.2.4-.4.6-.5.3-.2.5-.2.6,0,0,0,.2,0,.2.3s0,.3-.2.6-.5.7-.8,1.2c.3,0,.6,0,1.2-.4h.8v.4c-.8,1.8-1.1,3-.9,3.4h.3s.3-.2.5-.4c.2-.2.4-.4.6-.6.3-.3.5-.5.7-.9.3-.4.5-.7.7-1.2.2-.3.2-.4.3-.4l.2-.4ZM111.6,42.3v.5c.5-.7.9-1.3.9-1.5,0,0-.2,0-.4.2-.2,0-.3.2-.4.4,0,.2-.2.4-.3.5h.2Z"/>
        <path class="cls-7" d="M121.4,43h.2c-.3.3-.6.5-1,.5s-.7.2-1.1,0c-.4,0-.7-.3-.9-.5-.2.5-.5,1-.9,1.5-.3.4-.5.6-.8.8s-.5.4-.7.5h-.6c-.5-.4-.2-1.5.6-3.6h0s0,0,.2,0q.1,0,0,0h0c-.2.6-.4,1.1-.5,1.5-.2.5-.3.7-.3.9v.8h0c.2,0,.5-.3.8-.5.4-.3.6-.7.9-1.2s.5-.9.5-1.4h.2s.2,0,.2.2c0,.5.5.8.9.9h.8c.3,0,.5-.3.8-.5h.7Z"/>
        <path class="cls-7" d="M124.9,42.9h.2c-.9,1-1.6,1.7-2.3,2.1-.3.2-.5.3-.8.3h-.5s-.2,0-.3-.2c0,0-.2-.2-.2-.4v-.6c0-.3,0-.5.3-.9.2-.5.5-1,.8-1.3.4-.3.5-.5.8-.5s.3,0,.4.2c0,.2,0,.5-.3.7-.3.3-.7.6-1.3,1,0,.3-.2.5-.2.6v1h0c.3.2.5.2.9,0,.6-.4,1.4-1,2.3-1.9-.2,0,0,0,0,0h.2ZM122.7,41.7c-.3,0-.5.5-.8.8.5-.3.7-.5.8-.8Z"/>
        <path class="cls-7" d="M138.2,39.3h0v.2h-6.3c-.5,1.6-1,3.5-1.5,5.4-.6,2.3-1,3.9-1.1,4.7h0v.3h0s0,.2-.2.2h0s-.2,0-.2-.2v-.4c0-.3,0-.6.2-1.1.2-.9.5-2.1.9-3.5.5-2,1.1-3.8,1.6-5.5h-.5c-1.2,1.6-2.7,3.8-4.5,6.6.2.5.2.8,0,1.3,0,.5-.5,1-.9,1.3-.2.2-.4.2-.5.3h-.5c-.3-.2-.2-.5.2-1.3l.3-.5c.4-.5.5-.8.7-1.1,0-.2-.2-.4-.4-.5-.4-.5-.6-.8-.8-1.1-.2-.3-.3-.5-.3-.8s0-.5.3-.6c.2-.2.4-.4.6-.5.2,0,.5-.2.7-.2h.6v.2h-1.1c-.4.2-.6.5-.6.8s0,.5.3.7c.2.3.5.6.8,1,0,0,.2.2.2.3,1.7-2.5,3.2-4.6,4.2-6.2h-6.5s0,0-.2,0h0v-.2h6.9c.5-.7,1-1.4,1.4-2h.3c.1,0,.2,0,0,.2-.2.5-.4,1.2-.6,1.9h6.1v.2h.4ZM125.8,48c.4-.5.5-.9.5-1.5,0,0-.2.3-.3.5,0,.2-.2.3-.2.4l-.3.5c-.3.4-.4.6-.4.8,0,0,.2,0,.3-.2,0-.2.2-.3.4-.5ZM131.3,39.1h.3c0-.3.2-.5.3-.7-.2.3-.4.5-.5.7h-.1Z"/>
        <path class="cls-7" d="M150.6,51.1h-2.1v-2.3h2.1v2.3Z"/>
        <path class="cls-7" d="M160.3,49.6c0,1-.5,1.5-1.5,1.5h-4.2c-1,0-1.5-.5-1.5-1.5v-9.6c0-1,.5-1.5,1.5-1.5h4.2c1,0,1.5.5,1.5,1.5v2.5h-1.8v-2.5h-3.7v9.5h3.7v-2.8h1.8v3h0Z"/>
        <path class="cls-7" d="M170.3,49.6c0,1-.5,1.5-1.5,1.5h-4.5c-1,0-1.5-.5-1.5-1.5v-9.6c0-1,.5-1.5,1.5-1.5h4.5c1,0,1.5.5,1.5,1.5v9.6ZM168.5,49.5v-9.5h-4v9.5h4Z"/>
        <path class="cls-7" d="M186,51.1h-1.8v-10.9h-3.9v10.9h-1.8v-10.9h-3.9v10.9h-1.8v-12.5h1.8v.4c.7,0,1.4-.2,2.1-.3.8,0,1.5-.2,2.1-.2s1,.2,1.2.5c.7,0,1.5-.2,2.3-.3,1,0,1.7-.2,2.3-.2,1,0,1.4.5,1.4,1.4v11.2h0Z"/>
        <path class="cls-7" d="M24.2,46.5l-1.8-.5c-.4-.7-1.1-1.2-1.9-1.2s-.8,0-1.1.3l-1.8-.5c.7-.8,1.8-1.5,3-1.5,1.8,0,3.3,1.5,3.6,3.5h0Z"/>
        <path class="cls-7" d="M39.2,50.8l-5.4-1.6c.5-.4,1.3-.5,2-.5,1.4,0,2.8.9,3.4,2.2h0Z"/>
        <path class="cls-6" d="M24.2,46.5c-.2-1.9-1.8-3.4-3.8-3.4s-2.3.5-3,1.5c-.5.6-.8,1.5-.8,2.5,0,2.1,1.7,3.8,3.8,3.8s3.8-1.7,3.8-3.8v-.5h0ZM20.4,49c-1.2,0-2.2-1-2.2-2.2s.2-1,.5-1.4c.2-.2.4-.4.5-.5.4-.2.7-.3,1.1-.3.8,0,1.6.5,1.9,1.2,0,.2.2.5.2.7v.3c.2,1.1-.8,2.1-2,2.1h0Z"/>
        <path class="cls-5" d="M39.2,50.8c-.6-1.3-1.9-2.2-3.4-2.2s-1.4.2-2,.5c-1.1.6-1.8,1.9-1.8,3.3,0,2.1,1.7,3.8,3.8,3.8s3.8-1.7,3.8-3.8-.2-1.1-.4-1.6ZM35.6,54.7c-1.2,0-2.2-1-2.2-2.2s.5-1.5,1-1.8c.4-.2.7-.4,1.1-.4.9,0,1.6.5,2,1.3.2.3.2.6.2.9,0,1.2-.8,2.2-2.1,2.2Z"/>
        <path class="cls-4" d="M11.4,14l-7.2,3-1.2-4.5c-.5-2.1.6-4.2,2.7-4.7s4.2.6,4.7,2.7l1,3.5Z"/>
        <path class="cls-3" d="M11.7,15.5l-7.2,3-.2-.8,7.2-2.9.2.7Z"/>
        <path class="cls-1" d="M12.1,16.8l-7.2,3-.2-.7,7.2-2.9s.2.6.2.6Z"/>
        <path class="cls-2" d="M51.7,49.1c0,.4,0,.7-.2,1.2-.6,2.2-2.9,3.4-5.1,2.7l-5.4-1.6c-.5-2.5-2.7-4.5-5.4-4.5s-2.9.6-4,1.6l-5.9-1.7h0c0-3.2-2.4-5.6-5.5-5.6s-3.7,1-4.7,2.6l-1.8-.5s-.3,0-.4-.2c-1.4-.2-2.7-1.3-3.2-2.8l-5.2-19.8,7.2-3,4.9,18.4,31.7,9.4c1.7.5,2.9,2.2,2.9,3.9h0Z"/>
      </g>
    </g>
  </g>
</svg>